Coordinates
version=1
nRows=17
nColumns=40
inDegrees=yes

Units are S.I. units (second, meters, Newtons, ...)
If the header above contains a line with 'inDegrees', this indicates whether rotational values are in degrees (yes) or radians (no).

endheader
time	pelvis_tilt	pelvis_list	pelvis_rotation	pelvis_tx	pelvis_ty	pelvis_tz	hip_flexion_r	hip_adduction_r	hip_rotation_r	knee_angle_r	knee_angle_r_beta	ankle_angle_r	subtalar_angle_r	mtp_angle_r	hip_flexion_l	hip_adduction_l	hip_rotation_l	knee_angle_l	knee_angle_l_beta	ankle_angle_l	subtalar_angle_l	mtp_angle_l	lumbar_extension	lumbar_bending	lumbar_rotation	arm_flex_r	arm_add_r	arm_rot_r	elbow_flex_r	pro_sup_r	wrist_flex_r	wrist_dev_r	arm_flex_l	arm_add_l	arm_rot_l	elbow_flex_l	pro_sup_l	wrist_flex_l	wrist_dev_l
      1.40000000	      6.51954630	     -1.40699644	      4.25721506	     -0.26153358	      1.07225413	     -1.12419069	     -1.86351512	     -0.32051793	     -5.83455029	     78.30927688	      1.36675472	     -0.18370467	      0.00000000	      0.00000000	     -3.22702377	      1.71230128	     -1.03157214	     11.18430614	      0.19520297	     -6.45449242	      0.00000000	      0.00000000	    -17.77978058	     -2.59148637	     -0.05710295	     65.15531967	     -5.59593735	     22.84779472	     50.36141513	     87.10621964	      0.00000000	      0.00000000	     77.17037441	    -14.27337812	     48.54453586	     49.17720946	     85.82170566	      0.00000000	      0.00000000
      1.40500000	      6.53347509	     -1.45935701	      4.22064013	     -0.26140421	      1.07237169	     -1.12420496	     -2.03583997	     -0.37553606	     -6.14810048	     78.10702317	      1.36322472	     -0.72190134	      0.00000000	      0.00000000	     -3.29475548	      1.66458843	     -0.94111781	     11.09740890	      0.19368632	     -6.48331544	      0.00000000	      0.00000000	    -17.77795286	     -2.56509877	      0.01365866	     65.33309775	     -5.55338721	     22.81364232	     50.25981063	     87.18212642	      0.00000000	      0.00000000	     77.28661469	    -14.18439738	     48.61383722	     48.94110352	     85.56680916	      0.00000000	      0.00000000
      1.41000000	      6.47779746	     -1.48165458	      4.18214014	     -0.26139311	      1.07236316	     -1.12429048	     -2.10073671	     -0.43092173	     -6.40917663	     77.96587597	      1.36076124	     -1.19509045	      0.00000000	      0.00000000	     -3.25628353	      1.65415145	     -0.88403601	     11.03960126	      0.19267739	     -6.54201602	      0.00000000	      0.00000000	    -17.72012344	     -2.55307458	      0.05474428	     65.66695785	     -5.56802971	     23.18324549	     49.99283993	     86.80256912	      0.00000000	      0.00000000	     77.42878227	    -14.09876009	     48.64785858	     48.71233639	     86.34353256	      0.00000000	      0.00000000
      1.41500000	      6.48368929	     -1.55481607	      4.08904909	     -0.26133470	      1.07242932	     -1.12424197	     -2.24790793	     -0.40896207	     -6.59386750	     77.76344948	      1.35722823	     -1.59402599	      0.00000000	      0.00000000	     -3.28206415	      1.58035696	     -0.95680658	     11.01231854	      0.19220122	     -6.59134591	      0.00000000	      0.00000000	    -17.72865699	     -2.50211292	      0.13714914	     65.95615125	     -5.51009140	     23.34602831	     49.72688849	     86.86989652	      0.00000000	      0.00000000	     77.52980634	    -14.06118740	     48.64332991	     48.54734236	     86.23194688	      0.00000000	      0.00000000
      1.42000000	      6.47542759	     -1.57516617	      3.98476832	     -0.26138761	      1.07249827	     -1.12425823	     -2.32534401	     -0.45783032	     -6.77722805	     77.65008716	      1.35524969	     -2.04126672	      0.00000000	      0.00000000	     -3.26740989	      1.57060987	     -1.02235557	     11.02172709	      0.19236543	     -6.59585109	      0.00000000	      0.00000000	    -17.72866291	     -2.51399126	      0.24506791	     66.27408596	     -5.45585713	     23.50047355	     49.48166066	     86.82996188	      0.00000000	      0.00000000	     77.67937854	    -13.96752899	     48.71762981	     48.32645702	     86.30936346	      0.00000000	      0.00000000
      1.42500000	      6.43674442	     -1.62656723	      3.95906397	     -0.26136064	      1.07256944	     -1.12432165	     -2.40795369	     -0.47488548	     -7.07384879	     77.46197991	      1.35196659	     -2.39344401	      0.00000000	      0.00000000	     -3.25133345	      1.52450780	     -0.95539052	     10.97295340	      0.19151417	     -6.58828250	      0.00000000	      0.00000000	    -17.68917489	     -2.43960127	      0.29403719	     66.59238284	     -5.45932504	     23.81690187	     49.22883145	     86.79536295	      0.00000000	      0.00000000	     77.68944299	    -13.81872948	     46.28188013	     48.76088059	     81.31426099	      0.00000000	      0.00000000
      1.43000000	      6.41227863	     -1.71161599	      3.84273812	     -0.26137069	      1.07263774	     -1.12419067	     -2.48573471	     -0.44869974	     -7.25948127	     77.31223512	      1.34935305	     -2.71411977	      0.00000000	      0.00000000	     -3.19997924	      1.43121650	     -1.12763899	     11.02451667	      0.19241411	     -6.53454188	      0.00000000	      0.00000000	    -17.66798047	     -2.40075724	      0.41360769	     66.76991726	     -5.38478107	     23.91466394	     49.10241611	     86.73796579	      0.00000000	      0.00000000	     77.82653524	    -13.78607381	     46.42116361	     48.62103615	     81.14288963	      0.00000000	      0.00000000
      1.43500000	      6.28942539	     -1.78568440	      3.74232374	     -0.26141358	      1.07263773	     -1.12408226	     -2.44637304	     -0.43542881	     -7.46563282	     77.16772348	      1.34683085	     -3.04908102	      0.00000000	      0.00000000	     -3.06330725	      1.35655797	     -1.19387444	     11.02521799	      0.19242635	     -6.72675865	      0.00000000	      0.00000000	    -17.53364885	     -2.38912466	      0.58547229	     67.00952423	     -5.44126928	     24.02260159	     48.84402073	     86.83351179	      0.00000000	      0.00000000	     77.95427234	    -13.60494267	     46.58721599	     48.32129738	     80.97696653	      0.00000000	      0.00000000
      1.44000000	      6.30337088	     -1.80619635	      3.66922553	     -0.26140191	      1.07271553	     -1.12410461	     -2.56934137	     -0.46997572	     -7.69522787	     76.98996288	      1.34372834	     -3.44306256	      0.00000000	      0.00000000	     -3.07422596	      1.34167143	     -1.28979079	     11.03786742	      0.19264713	     -6.68269550	      0.00000000	      0.00000000	    -17.56753942	     -2.37571564	      0.57858668	     67.28785537	     -5.29171494	     24.24981052	     48.64035814	     86.72291085	      0.00000000	      0.00000000	     78.06948813	    -13.71092849	     46.70225661	     48.30452760	     81.26472137	      0.00000000	      0.00000000
      1.44500000	      6.24099523	     -1.82285875	      3.51437436	     -0.26144472	      1.07277887	     -1.12399882	     -2.57142813	     -0.55209980	     -7.86867119	     76.87429546	      1.34170957	     -3.61172631	      0.00000000	      0.00000000	     -3.03343678	      1.33839485	     -1.42145596	     10.99073241	      0.19182447	     -6.70363440	      0.00000000	      0.00000000	    -17.49264525	     -2.42318727	      0.78957800	     67.43421670	     -5.31088977	     24.18687372	     48.49782444	     86.83233865	      0.00000000	      0.00000000	     78.16952117	    -13.56595191	     46.84187729	     48.07664838	     80.63336320	      0.00000000	      0.00000000
      1.45000000	      6.21434277	     -1.91647551	      3.45437954	     -0.26146522	      1.07284692	     -1.12392196	     -2.63807380	     -0.48789259	     -8.08500943	     76.69990393	      1.33866586	     -3.85533971	      0.00000000	      0.00000000	     -3.01134740	      1.23671094	     -1.36250950	     10.98609698	      0.19174356	     -6.62580883	      0.00000000	      0.00000000	    -17.47242020	     -2.34884078	      0.81696238	     67.80209160	     -5.26190104	     24.69959600	     48.17198120	     86.73110779	      0.00000000	      0.00000000	     78.25832036	    -13.58597463	     46.82942019	     47.99320988	     81.31648435	      0.00000000	      0.00000000
      1.45500000	      6.06251620	     -1.89792786	      3.31896231	     -0.26159428	      1.07267833	     -1.12371549	     -2.51969756	     -0.57454321	     -8.24916736	     76.64247790	      1.33766359	     -4.03888354	      0.00000000	      0.00000000	     -2.81644269	      1.25415713	     -1.47003286	     11.05310990	      0.19291316	     -6.66668113	      0.00000000	      0.00000000	    -17.31067175	     -2.43436945	      0.92125884	     67.98318350	     -5.23345723	     24.79201133	     47.99098456	     86.73831260	      0.00000000	      0.00000000	     78.39953508	    -13.57599138	     47.04646974	     47.82638331	     81.34810432	      0.00000000	      0.00000000
      1.46000000	      6.04410545	     -1.97032814	      3.20060638	     -0.26175013	      1.07283955	     -1.12352160	     -2.54507237	     -0.53026680	     -8.38542361	     76.51907534	      1.33550981	     -4.28079002	      0.00000000	      0.00000000	     -2.76988460	      1.17566436	     -1.59644464	     11.09310716	      0.19361124	     -6.60453244	      0.00000000	      0.00000000	    -17.31841007	     -2.40963887	      1.04011162	     68.22486193	     -5.15364144	     24.88574256	     47.78170037	     86.84138868	      0.00000000	      0.00000000	     78.51125778	    -13.57659268	     47.22689051	     47.78903270	     80.18790189	      0.00000000	      0.00000000
      1.46500000	      5.98675863	     -2.04720559	      3.09243674	     -0.26184007	      1.07287769	     -1.12334051	     -2.55615515	     -0.48598459	     -8.54954524	     76.38726897	      1.33320935	     -4.36779251	      0.00000000	      0.00000000	     -2.68449999	      1.09095733	     -1.67119156	     11.14113286	      0.19444945	     -6.59709932	      0.00000000	      0.00000000	    -17.26902898	     -2.38288213	      1.16045968	     68.49311597	     -5.18449875	     25.21891612	     47.58935621	     86.74946303	      0.00000000	      0.00000000	     78.65220407	    -13.52052219	     47.36077143	     47.56832784	     81.46744347	      0.00000000	      0.00000000
      1.47000000	      5.94412656	     -2.11160340	      2.97176813	     -0.26199674	      1.07294251	     -1.12317615	     -2.56284292	     -0.46007586	     -8.69327817	     76.25331221	      1.33087136	     -4.52406723	      0.00000000	      0.00000000	     -2.62923399	      1.02125181	     -1.74444043	     11.14499476	      0.19451685	     -6.58946012	      0.00000000	      0.00000000	    -17.25293055	     -2.37034532	      1.28235227	     68.72904441	     -5.18985583	     25.46361597	     47.43584662	     86.73668542	      0.00000000	      0.00000000	     78.77299409	    -13.49331397	     47.55223367	     47.43879883	     81.50449318	      0.00000000	      0.00000000
      1.47500000	      5.90132449	     -2.19935852	      2.92196846	     -0.26212252	      1.07297303	     -1.12307468	     -2.57778401	     -0.42047803	     -8.93775826	     76.12365619	      1.32860844	     -4.66480854	      0.00000000	      0.00000000	     -2.54821520	      0.91564896	     -1.71902407	     11.21356202	      0.19571358	     -6.58841575	      0.00000000	      0.00000000	    -17.23633474	     -2.31914934	      1.33436208	     68.96811365	     -5.19247721	     25.71756039	     47.28942819	     86.76606385	      0.00000000	      0.00000000	     78.92016250	    -13.52003277	     47.86938806	     47.40626502	     81.21134761	      0.00000000	      0.00000000
      1.48000000	      5.88898755	     -2.23530971	      2.80644041	     -0.26223502	      1.07308330	     -1.12291914	     -2.60908200	     -0.42278283	     -9.06707658	     76.01553839	      1.32672143	     -4.77942569	      0.00000000	      0.00000000	     -2.49984802	      0.87491571	     -1.89828671	     11.27417579	      0.19677149	     -6.48498927	      0.00000000	      0.00000000	    -17.25182655	     -2.33097232	      1.45037999	     69.17909251	     -5.19887642	     25.91369261	     47.13646912	     86.79364559	      0.00000000	      0.00000000	     79.01040512	    -13.47357037	     47.89176563	     47.29609267	     81.33301185	      0.00000000	      0.00000000
